<svg width="24" height="24" viewBox="1 0 24 24" fill="none" xmlns="http://www.w3.org/2000/svg">
<path d="M18.4 6.35C16.95 4.9 14.96 4 12.75 4C10.6283 4 8.59344 4.84285 7.09315 6.34315C5.59285 7.84344 4.75 9.87827 4.75 12C4.75 14.1217 5.59285 16.1566 7.09315 17.6569C8.59344 19.1571 10.6283 20 12.75 20C16.48 20 19.59 17.45 20.48 14H18.4C17.58 16.33 15.36 18 12.75 18C11.1587 18 9.63258 17.3679 8.50736 16.2426C7.38214 15.1174 6.75 13.5913 6.75 12C6.75 10.4087 7.38214 8.88258 8.50736 7.75736C9.63258 6.63214 11.1587 6 12.75 6C14.41 6 15.89 6.69 16.97 7.78L13.75 11H20.75V4L18.4 6.35Z" fill="black"/>
</svg>
