<svg width="25" height="24" viewBox="0 0 25 24" fill="none" xmlns="http://www.w3.org/2000/svg">
<path d="M10.5 22C9.95 22 9.47933 21.8043 9.088 21.413C8.696 21.021 8.5 20.55 8.5 20V11L6.5 8V7H18.5V8L16.5 11V20C16.5 20.55 16.3043 21.021 15.913 21.413C15.521 21.8043 15.05 22 14.5 22H10.5ZM12.5 15.5C12.9167 15.5 13.2707 15.354 13.562 15.062C13.854 14.7707 14 14.4167 14 14C14 13.5833 13.854 13.2293 13.562 12.938C13.2707 12.646 12.9167 12.5 12.5 12.5C12.0833 12.5 11.7293 12.646 11.438 12.938C11.146 13.2293 11 13.5833 11 14C11 14.4167 11.146 14.7707 11.438 15.062C11.7293 15.354 12.0833 15.5 12.5 15.5ZM6.5 5V4C6.5 3.45 6.696 2.979 7.088 2.587C7.47933 2.19567 7.95 2 8.5 2H16.5C17.05 2 17.521 2.19567 17.913 2.587C18.3043 2.979 18.5 3.45 18.5 4V5H6.5Z" fill="white"/>
</svg>
