<svg width="24" height="24" viewBox="0 0 24 24" fill="none" xmlns="http://www.w3.org/2000/svg">
    <path fill-rule="evenodd" clip-rule="evenodd" d="M9.60348 23.3521C11.5107 23.9119 13.433 24.1336 15.0885 23.9197C20.6735 23.198 23.727 15.9561 24 10.2755L9.60348 23.3521ZM3.31981 20.0484C3.71876 20.3862 4.14298 20.7066 4.58829 21.0078L22.9592 4.32068C22.7275 3.79575 22.4713 3.32506 22.1927 2.90519L3.31981 20.0484ZM11.5011 1.20174C6.2965 3.34695 -0.636428 9.96795 0.0468556 14.8035C0.0989874 15.172 0.186537 15.5332 0.302938 15.8885L17.7245 0.0641411C17.3926 0.0209363 17.0527 0.00019033 16.7063 0C15.0845 0 13.3134 0.454888 11.5011 1.20174ZM6.17632 21.9593C6.67435 22.2227 7.18652 22.4635 7.70764 22.6805L23.9431 7.93352C23.8868 7.40497 23.8026 6.90345 23.6846 6.44381C23.6572 6.33741 23.6271 6.2373 23.5985 6.13395L6.17632 21.9593ZM1.10222 17.5564C1.37542 17.9902 1.69179 18.4091 2.04716 18.8105L21.042 1.55671C20.6278 1.18499 20.1838 0.883892 19.7129 0.651689L1.10222 17.5564Z" fill="white"/>
</svg>
