<svg width="32" height="32" viewBox="0 0 32 32" fill="none" xmlns="http://www.w3.org/2000/svg">
<path d="M12.8338 26.7626L14.2287 24.3363L14.1768 24.3033L6.47063 32L6.4069 31.9622V26.8146C6.26056 26.8146 6.14255 26.7981 6.02218 26.7981C4.62728 26.7981 3.23003 26.7981 1.83277 26.7981C1.56607 26.7981 1.5 26.7131 1.5 26.4605C1.5 17.7544 1.5 9.04677 1.5 0.337518C1.5 0.101495 1.5519 0 1.82805 0C11.3193 0 20.8106 0 30.3019 0H30.5969V26.7626H12.8338ZM6.17324 13.6634C6.23254 14.2713 6.32474 14.8757 6.4494 15.4737C7.05125 17.8905 8.42725 19.6985 10.771 20.6662C12.2124 21.2483 13.7889 21.412 15.3191 21.1382C17.4245 20.8054 19.0955 19.7858 20.2567 17.985C21.5289 15.9929 21.8546 13.8097 21.3684 11.5108C21.0743 9.8621 20.2174 8.36642 18.9439 7.2788C17.6703 6.19118 16.0589 5.57896 14.3845 5.54654C12.5341 5.46393 10.7946 5.82269 9.28403 6.94852C7.13386 8.56999 6.26529 10.8075 6.17324 13.6705V13.6634ZM23.4666 5.7566C23.5634 9.46689 23.6625 13.1512 23.7593 16.8497H25.8835C26.0487 16.8497 26.0558 16.7506 26.0582 16.6278C26.1101 14.6122 26.1636 12.5973 26.2187 10.5833C26.2494 9.3772 26.2824 8.17348 26.3084 6.9674C26.3084 6.56852 26.3084 6.16728 26.3084 5.75424L23.4666 5.7566ZM26.2092 19.7858C26.2092 19.4105 26.2092 19.0329 26.2092 18.6576C26.2092 18.483 26.1431 18.4216 25.9732 18.4216C25.2486 18.4216 24.524 18.4216 23.7971 18.4216C23.6248 18.4216 23.561 18.4853 23.5728 18.6576C23.5728 19.3917 23.5728 20.128 23.5728 20.8621C23.5728 21.032 23.6295 21.0981 23.8089 21.0981C24.5335 21.0981 25.2604 21.0981 25.985 21.0981C26.155 21.0981 26.221 21.0367 26.221 20.8621C26.2092 20.501 26.2092 20.154 26.2092 19.7858Z" fill="#F0047F"/>
<path d="M9.21558 13.517C9.24154 11.9592 9.66638 10.6706 10.7238 9.63206C11.4026 8.96358 12.2895 8.54719 13.2374 8.45195C14.2951 8.29031 15.3763 8.49075 16.3057 9.02076C17.1654 9.5315 17.8211 10.3249 18.1609 11.2653C18.7095 12.6365 18.7095 14.1662 18.1609 15.5374C17.4079 17.4775 15.6354 18.5348 13.5584 18.3862C11.0377 18.2021 9.59794 16.3351 9.30999 14.3006C9.24626 14.0174 9.2321 13.7105 9.21558 13.517Z" fill="#F0047F"/>
</svg>
