<svg width="25" height="24" viewBox="0 0 25 24" fill="none" xmlns="http://www.w3.org/2000/svg">
<path d="M5.5 11C4.95 11 4.479 10.804 4.087 10.412C3.69567 10.0207 3.5 9.55 3.5 9V5C3.5 4.45 3.69567 3.979 4.087 3.587C4.479 3.19567 4.95 3 5.5 3H9.5C10.05 3 10.521 3.19567 10.913 3.587C11.3043 3.979 11.5 4.45 11.5 5V9C11.5 9.55 11.3043 10.0207 10.913 10.412C10.521 10.804 10.05 11 9.5 11H5.5ZM5.5 9H9.5V5H5.5V9ZM5.5 21C4.95 21 4.479 20.8043 4.087 20.413C3.69567 20.021 3.5 19.55 3.5 19V15C3.5 14.45 3.69567 13.979 4.087 13.587C4.479 13.1957 4.95 13 5.5 13H9.5C10.05 13 10.521 13.1957 10.913 13.587C11.3043 13.979 11.5 14.45 11.5 15V19C11.5 19.55 11.3043 20.021 10.913 20.413C10.521 20.8043 10.05 21 9.5 21H5.5ZM5.5 19H9.5V15H5.5V19ZM15.5 11C14.95 11 14.4793 10.804 14.088 10.412C13.696 10.0207 13.5 9.55 13.5 9V5C13.5 4.45 13.696 3.979 14.088 3.587C14.4793 3.19567 14.95 3 15.5 3H19.5C20.05 3 20.521 3.19567 20.913 3.587C21.3043 3.979 21.5 4.45 21.5 5V9C21.5 9.55 21.3043 10.0207 20.913 10.412C20.521 10.804 20.05 11 19.5 11H15.5ZM15.5 9H19.5V5H15.5V9ZM20 21C19.8667 21 19.75 20.95 19.65 20.85C19.55 20.75 19.5 20.6333 19.5 20.5V19.5C19.5 19.3667 19.55 19.25 19.65 19.15C19.75 19.05 19.8667 19 20 19H21C21.1333 19 21.25 19.05 21.35 19.15C21.45 19.25 21.5 19.3667 21.5 19.5V20.5C21.5 20.6333 21.45 20.75 21.35 20.85C21.25 20.95 21.1333 21 21 21H20ZM14 15C13.8667 15 13.75 14.95 13.65 14.85C13.55 14.75 13.5 14.6333 13.5 14.5V13.5C13.5 13.3667 13.55 13.25 13.65 13.15C13.75 13.05 13.8667 13 14 13H15C15.1333 13 15.25 13.05 15.35 13.15C15.45 13.25 15.5 13.3667 15.5 13.5V14.5C15.5 14.6333 15.45 14.75 15.35 14.85C15.25 14.95 15.1333 15 15 15H14ZM16 17C15.8667 17 15.75 16.95 15.65 16.85C15.55 16.75 15.5 16.6333 15.5 16.5V15.5C15.5 15.3667 15.55 15.25 15.65 15.15C15.75 15.05 15.8667 15 16 15H17C17.1333 15 17.25 15.05 17.35 15.15C17.45 15.25 17.5 15.3667 17.5 15.5V16.5C17.5 16.6333 17.45 16.75 17.35 16.85C17.25 16.95 17.1333 17 17 17H16ZM14 19C13.8667 19 13.75 18.95 13.65 18.85C13.55 18.75 13.5 18.6333 13.5 18.5V17.5C13.5 17.3667 13.55 17.25 13.65 17.15C13.75 17.05 13.8667 17 14 17H15C15.1333 17 15.25 17.05 15.35 17.15C15.45 17.25 15.5 17.3667 15.5 17.5V18.5C15.5 18.6333 15.45 18.75 15.35 18.85C15.25 18.95 15.1333 19 15 19H14ZM16 21C15.8667 21 15.75 20.95 15.65 20.85C15.55 20.75 15.5 20.6333 15.5 20.5V19.5C15.5 19.3667 15.55 19.25 15.65 19.15C15.75 19.05 15.8667 19 16 19H17C17.1333 19 17.25 19.05 17.35 19.15C17.45 19.25 17.5 19.3667 17.5 19.5V20.5C17.5 20.6333 17.45 20.75 17.35 20.85C17.25 20.95 17.1333 21 17 21H16ZM18 19C17.8667 19 17.75 18.95 17.65 18.85C17.55 18.75 17.5 18.6333 17.5 18.5V17.5C17.5 17.3667 17.55 17.25 17.65 17.15C17.75 17.05 17.8667 17 18 17H19C19.1333 17 19.25 17.05 19.35 17.15C19.45 17.25 19.5 17.3667 19.5 17.5V18.5C19.5 18.6333 19.45 18.75 19.35 18.85C19.25 18.95 19.1333 19 19 19H18ZM18 15C17.8667 15 17.75 14.95 17.65 14.85C17.55 14.75 17.5 14.6333 17.5 14.5V13.5C17.5 13.3667 17.55 13.25 17.65 13.15C17.75 13.05 17.8667 13 18 13H19C19.1333 13 19.25 13.05 19.35 13.15C19.45 13.25 19.5 13.3667 19.5 13.5V14.5C19.5 14.6333 19.45 14.75 19.35 14.85C19.25 14.95 19.1333 15 19 15H18ZM20 17C19.8667 17 19.75 16.95 19.65 16.85C19.55 16.75 19.5 16.6333 19.5 16.5V15.5C19.5 15.3667 19.55 15.25 19.65 15.15C19.75 15.05 19.8667 15 20 15H21C21.1333 15 21.25 15.05 21.35 15.15C21.45 15.25 21.5 15.3667 21.5 15.5V16.5C21.5 16.6333 21.45 16.75 21.35 16.85C21.25 16.95 21.1333 17 21 17H20Z" fill="black"/>
</svg>
