<svg width="35" height="22" viewBox="0 0 35 22" fill="none" xmlns="http://www.w3.org/2000/svg">
<path d="M2.46795 1.31617C1.8484 1.31617 1.34615 1.80722 1.34615 2.41297V19.567C1.34615 20.1728 1.8484 20.6638 2.46795 20.6638H32.5321C33.1516 20.6638 33.6539 20.1728 33.6539 19.567V2.41297C33.6539 1.80722 33.1516 1.31617 32.5321 1.31617H2.46795ZM2.46795 0H32.5321C33.8951 0 35 1.08033 35 2.41297V19.567C35 20.8997 33.8951 21.98 32.5321 21.98H2.46795C1.10494 21.98 0 20.8997 0 19.567V2.41297C0 1.08033 1.10494 0 2.46795 0Z" fill="#808080"/>
<path d="M13.188 15.4059L14.6741 6.68561H17.051L15.5639 15.4059H13.188Z" fill="#808080"/>
<path d="M24.151 6.87367C23.68 6.697 22.9422 6.50742 22.0207 6.50742C19.6721 6.50742 18.0176 7.69014 18.0036 9.38523C17.9903 10.6382 19.1846 11.3373 20.0862 11.7544C21.0114 12.1818 21.3225 12.4544 21.3181 12.8361C21.3122 13.4206 20.5792 13.6877 19.896 13.6877C18.9447 13.6877 18.4393 13.5555 17.6587 13.2299L17.3524 13.0913L17.0188 15.0434C17.574 15.2868 18.6006 15.4978 19.6665 15.5087C22.165 15.5087 23.787 14.3395 23.8054 12.5294C23.8144 11.5374 23.1811 10.7824 21.8098 10.1601C20.979 9.75669 20.4702 9.48751 20.4756 9.07903C20.4756 8.71656 20.9063 8.32897 21.8368 8.32897C22.6141 8.3169 23.1771 8.48639 23.6158 8.66306L23.8288 8.76369L24.151 6.87367Z" fill="#808080"/>
<path d="M30.2673 6.68561H28.4307C27.8617 6.68561 27.4359 6.84089 27.186 7.40876L23.656 15.4003H26.1519C26.1519 15.4003 26.5601 14.3258 26.6524 14.0899C26.9251 14.0899 29.3498 14.0937 29.6964 14.0937C29.7675 14.3989 29.9856 15.4003 29.9856 15.4003H32.1911L30.2673 6.68561ZM27.3533 12.3165C27.5499 11.814 28.3003 9.8788 28.3003 9.8788C28.2862 9.90201 28.4954 9.37393 28.6154 9.04652L28.7761 9.79836C28.7761 9.79836 29.2312 11.8799 29.3263 12.3164L27.3533 12.3165Z" fill="#808080"/>
<path d="M11.1703 6.68561L8.84327 12.6322L8.59533 11.4237C8.16213 10.0306 6.8124 8.52133 5.30347 7.7657L7.43127 15.392L9.94608 15.3891L13.6881 6.68561H11.1703Z" fill="#808080"/>
<path d="M6.67191 6.68561H2.83917L2.80884 6.86704C5.79067 7.58886 7.76372 9.33321 8.58273 11.4291L7.74933 7.42181C7.60545 6.86963 7.18815 6.70485 6.67191 6.68561Z" fill="#808080"/>
</svg>
